<?xml version="1.0" encoding="UTF-8" standalone="no"?>
<!DOCTYPE svg PUBLIC "-//W3C//DTD SVG 1.1//EN"
 "http://www.w3.org/Graphics/SVG/1.1/DTD/svg11.dtd">
<!-- Generated by graphviz version 8.0.1 (20230327.1645)
 -->
<!-- Title: dependency&#45;cruiser output Pages: 1 -->
<svg width="502pt" height="252pt"
 viewBox="0.00 0.00 502.00 252.00" xmlns="http://www.w3.org/2000/svg" xmlns:xlink="http://www.w3.org/1999/xlink">
<g id="graph0" class="graph" transform="scale(1 1) rotate(0) translate(4 248)">
<title>dependency&#45;cruiser output</title>
<polygon fill="white" stroke="none" points="-4,4 -4,-248 498,-248 498,4 -4,4"/>
<g id="clust1" class="cluster">
<title>cluster_src</title>
<path fill="#ffffff" stroke="black" stroke-width="2" d="M20,-8C20,-8 474,-8 474,-8 480,-8 486,-14 486,-20 486,-20 486,-224 486,-224 486,-230 480,-236 474,-236 474,-236 20,-236 20,-236 14,-236 8,-230 8,-224 8,-224 8,-20 8,-20 8,-14 14,-8 20,-8"/>
<text text-anchor="middle" x="247" y="-224.8" font-family="Helvetica,sans-Serif" font-weight="bold" font-size="9.00">src</text>
</g>
<g id="clust3" class="cluster">
<title>cluster_src/infrastructure</title>
<path fill="#ffffff" stroke="black" stroke-width="2" d="M126,-158C126,-158 353,-158 353,-158 359,-158 365,-164 365,-170 365,-170 365,-198 365,-198 365,-204 359,-210 353,-210 353,-210 126,-210 126,-210 120,-210 114,-204 114,-198 114,-198 114,-170 114,-170 114,-164 120,-158 126,-158"/>
<text text-anchor="middle" x="239.5" y="-198.8" font-family="Helvetica,sans-Serif" font-weight="bold" font-size="9.00">infrastructure</text>
</g>
<g id="clust2" class="cluster">
<title>cluster_src/domain</title>
<path fill="#ffffff" stroke="black" stroke-width="2" d="M402.5,-54C402.5,-54 448.5,-54 448.5,-54 454.5,-54 460.5,-60 460.5,-66 460.5,-66 460.5,-94 460.5,-94 460.5,-100 454.5,-106 448.5,-106 448.5,-106 402.5,-106 402.5,-106 396.5,-106 390.5,-100 390.5,-94 390.5,-94 390.5,-66 390.5,-66 390.5,-60 396.5,-54 402.5,-54"/>
<text text-anchor="middle" x="425.5" y="-94.8" font-family="Helvetica,sans-Serif" font-weight="bold" font-size="9.00">domain</text>
</g>
<g id="clust4" class="cluster">
<title>cluster_src/repository</title>
<path fill="#ffffff" stroke="black" stroke-width="2" d="M385,-114C385,-114 466,-114 466,-114 472,-114 478,-120 478,-126 478,-126 478,-154 478,-154 478,-160 472,-166 466,-166 466,-166 385,-166 385,-166 379,-166 373,-160 373,-154 373,-154 373,-126 373,-126 373,-120 379,-114 385,-114"/>
<text text-anchor="middle" x="425.5" y="-154.8" font-family="Helvetica,sans-Serif" font-weight="bold" font-size="9.00">repository</text>
</g>
<g id="clust5" class="cluster">
<title>cluster_src/service</title>
<path fill="#ffffff" stroke="black" stroke-width="2" d="M139.5,-72C139.5,-72 339.5,-72 339.5,-72 345.5,-72 351.5,-78 351.5,-84 351.5,-84 351.5,-112 351.5,-112 351.5,-118 345.5,-124 339.5,-124 339.5,-124 139.5,-124 139.5,-124 133.5,-124 127.5,-118 127.5,-112 127.5,-112 127.5,-84 127.5,-84 127.5,-78 133.5,-72 139.5,-72"/>
<text text-anchor="middle" x="239.5" y="-112.8" font-family="Helvetica,sans-Serif" font-weight="bold" font-size="9.00">service</text>
</g>
<!-- src/App.test.tsx -->
<g id="node1" class="node">
<title>src/App.test.tsx</title>
<g id="a_node1"><a xlink:href="src/App.test.tsx" xlink:title="App.test.tsx">
<path fill="#bbfeff" stroke="black" d="M86.5,-150C86.5,-150 35.5,-150 35.5,-150 32.5,-150 29.5,-147 29.5,-144 29.5,-144 29.5,-138 29.5,-138 29.5,-135 32.5,-132 35.5,-132 35.5,-132 86.5,-132 86.5,-132 89.5,-132 92.5,-135 92.5,-138 92.5,-138 92.5,-144 92.5,-144 92.5,-147 89.5,-150 86.5,-150"/>
<text text-anchor="start" x="37.5" y="-138.8" font-family="Helvetica,sans-Serif" font-size="9.00">App.test.tsx</text>
</a>
</g>
</g>
<!-- src/App.tsx -->
<g id="node2" class="node">
<title>src/App.tsx</title>
<g id="a_node2"><a xlink:href="src/App.tsx" xlink:title="App.tsx">
<path fill="#bbfeff" stroke="black" d="M202.5,-150C202.5,-150 160.5,-150 160.5,-150 157.5,-150 154.5,-147 154.5,-144 154.5,-144 154.5,-138 154.5,-138 154.5,-135 157.5,-132 160.5,-132 160.5,-132 202.5,-132 202.5,-132 205.5,-132 208.5,-135 208.5,-138 208.5,-138 208.5,-144 208.5,-144 208.5,-147 205.5,-150 202.5,-150"/>
<text text-anchor="start" x="166" y="-138.8" font-family="Helvetica,sans-Serif" font-size="9.00">App.tsx</text>
</a>
</g>
</g>
<!-- src/App.test.tsx&#45;&gt;src/App.tsx -->
<g id="edge1" class="edge">
<title>src/App.test.tsx&#45;&gt;src/App.tsx</title>
<path fill="none" stroke="#000000" stroke-width="2" stroke-opacity="0.200000" d="M92.83,-141C108.91,-141 128.66,-141 145.34,-141"/>
<polygon fill="#000000" fill-opacity="0.200000" stroke="#000000" stroke-width="2" stroke-opacity="0.200000" points="145.25,-143.1 151.25,-141 145.25,-138.9 145.25,-143.1"/>
</g>
<!-- src/domain/User.ts -->
<g id="node3" class="node">
<title>src/domain/User.ts</title>
<g id="a_node3"><a xlink:href="src/domain/User.ts" xlink:title="User.ts">
<path fill="#ddfeff" stroke="black" d="M446.5,-80C446.5,-80 404.5,-80 404.5,-80 401.5,-80 398.5,-77 398.5,-74 398.5,-74 398.5,-68 398.5,-68 398.5,-65 401.5,-62 404.5,-62 404.5,-62 446.5,-62 446.5,-62 449.5,-62 452.5,-65 452.5,-68 452.5,-68 452.5,-74 452.5,-74 452.5,-77 449.5,-80 446.5,-80"/>
<text text-anchor="start" x="411" y="-68.8" font-family="Helvetica,sans-Serif" font-size="9.00">User.ts</text>
</a>
</g>
</g>
<!-- src/App.tsx&#45;&gt;src/domain/User.ts -->
<g id="edge2" class="edge">
<title>src/App.tsx&#45;&gt;src/domain/User.ts</title>
<path fill="none" stroke="#000000" stroke-width="2" stroke-opacity="0.200000" d="M208.97,-146.52C246.98,-152.9 317.66,-158.82 365,-127 371.6,-122.56 367.96,-117.15 373,-111 381.13,-101.1 392.13,-92.13 401.88,-85.21"/>
<polygon fill="#000000" fill-opacity="0.200000" stroke="#000000" stroke-width="2" stroke-opacity="0.200000" points="403.25,-86.45 407.02,-81.34 400.88,-82.99 403.25,-86.45"/>
</g>
<!-- src/infrastructure/ApiUserRepository.ts -->
<g id="node4" class="node">
<title>src/infrastructure/ApiUserRepository.ts</title>
<g id="a_node4"><a xlink:href="src/infrastructure/ApiUserRepository.ts" xlink:title="ApiUserRepository.ts">
<path fill="#ddfeff" stroke="black" d="M351,-184C351,-184 260,-184 260,-184 257,-184 254,-181 254,-178 254,-178 254,-172 254,-172 254,-169 257,-166 260,-166 260,-166 351,-166 351,-166 354,-166 357,-169 357,-172 357,-172 357,-178 357,-178 357,-181 354,-184 351,-184"/>
<text text-anchor="start" x="262" y="-172.8" font-family="Helvetica,sans-Serif" font-size="9.00">ApiUserRepository.ts</text>
</a>
</g>
</g>
<!-- src/App.tsx&#45;&gt;src/infrastructure/ApiUserRepository.ts -->
<g id="edge3" class="edge">
<title>src/App.tsx&#45;&gt;src/infrastructure/ApiUserRepository.ts</title>
<path fill="none" stroke="#000000" stroke-width="2" stroke-opacity="0.200000" d="M208.86,-145.79C219.07,-148.03 230.75,-151.09 241,-155 247.13,-157.34 247.89,-159.61 254,-162 254.5,-162.2 255.01,-162.39 255.51,-162.58"/>
<polygon fill="#000000" fill-opacity="0.200000" stroke="#000000" stroke-width="2" stroke-opacity="0.200000" points="255.62,-165.53 261.98,-165.5 256.99,-161.56 255.62,-165.53"/>
</g>
<!-- src/service/UserService.ts -->
<g id="node5" class="node">
<title>src/service/UserService.ts</title>
<g id="a_node5"><a xlink:href="src/service/UserService.ts" xlink:title="UserService.ts">
<path fill="#ddfeff" stroke="black" d="M337.5,-98C337.5,-98 273.5,-98 273.5,-98 270.5,-98 267.5,-95 267.5,-92 267.5,-92 267.5,-86 267.5,-86 267.5,-83 270.5,-80 273.5,-80 273.5,-80 337.5,-80 337.5,-80 340.5,-80 343.5,-83 343.5,-86 343.5,-86 343.5,-92 343.5,-92 343.5,-95 340.5,-98 337.5,-98"/>
<text text-anchor="start" x="275.5" y="-86.8" font-family="Helvetica,sans-Serif" font-size="9.00">UserService.ts</text>
</a>
</g>
</g>
<!-- src/App.tsx&#45;&gt;src/service/UserService.ts -->
<g id="edge4" class="edge">
<title>src/App.tsx&#45;&gt;src/service/UserService.ts</title>
<path fill="none" stroke="#000000" stroke-width="2" stroke-opacity="0.200000" d="M208.75,-139.48C219.65,-137.72 231.86,-134.14 241,-127 250.87,-119.29 244.2,-109.79 254,-102 255.71,-100.64 257.54,-99.43 259.45,-98.34"/>
<polygon fill="#000000" fill-opacity="0.200000" stroke="#000000" stroke-width="2" stroke-opacity="0.200000" points="260.65,-100.17 265.2,-95.73 258.87,-96.36 260.65,-100.17"/>
</g>
<!-- src/repository/UserRepository.ts -->
<g id="node10" class="node">
<title>src/repository/UserRepository.ts</title>
<g id="a_node10"><a xlink:href="src/repository/UserRepository.ts" xlink:title="UserRepository.ts">
<path fill="#ddfeff" stroke="black" d="M464,-140C464,-140 387,-140 387,-140 384,-140 381,-137 381,-134 381,-134 381,-128 381,-128 381,-125 384,-122 387,-122 387,-122 464,-122 464,-122 467,-122 470,-125 470,-128 470,-128 470,-134 470,-134 470,-137 467,-140 464,-140"/>
<text text-anchor="start" x="389" y="-128.8" font-family="Helvetica,sans-Serif" font-size="9.00">UserRepository.ts</text>
</a>
</g>
</g>
<!-- src/infrastructure/ApiUserRepository.ts&#45;&gt;src/repository/UserRepository.ts -->
<g id="edge9" class="edge">
<title>src/infrastructure/ApiUserRepository.ts&#45;&gt;src/repository/UserRepository.ts</title>
<path fill="none" stroke="#000000" stroke-width="2" stroke-opacity="0.200000" d="M354.06,-165.54C357.79,-164.46 361.48,-163.28 365,-162 377.56,-157.42 390.81,-150.72 401.62,-144.72"/>
<polygon fill="#000000" fill-opacity="0.200000" stroke="#000000" stroke-width="2" stroke-opacity="0.200000" points="403.18,-146.11 407.35,-141.31 401.1,-142.46 403.18,-146.11"/>
</g>
<!-- src/service/UserService.ts&#45;&gt;src/domain/User.ts -->
<g id="edge13" class="edge">
<title>src/service/UserService.ts&#45;&gt;src/domain/User.ts</title>
<path fill="none" stroke="#000000" stroke-width="2" stroke-opacity="0.200000" d="M343.84,-83.3C358.49,-81.07 375.2,-78.52 389.61,-76.32"/>
<polygon fill="#000000" fill-opacity="0.200000" stroke="#000000" stroke-width="2" stroke-opacity="0.200000" points="390.62,-77.99 396.24,-75.01 389.99,-73.83 390.62,-77.99"/>
</g>
<!-- src/service/UserService.ts&#45;&gt;src/repository/UserRepository.ts -->
<g id="edge14" class="edge">
<title>src/service/UserService.ts&#45;&gt;src/repository/UserRepository.ts</title>
<path fill="none" stroke="#000000" stroke-width="2" stroke-opacity="0.200000" d="M332.98,-98.43C349.83,-104.42 371.83,-112.25 390.04,-118.73"/>
<polygon fill="#000000" fill-opacity="0.200000" stroke="#000000" stroke-width="2" stroke-opacity="0.200000" points="389.75,-120.57 396.11,-120.61 391.16,-116.62 389.75,-120.57"/>
</g>
<!-- src/index.css -->
<g id="node6" class="node">
<title>src/index.css</title>
<g id="a_node6"><a xlink:href="src/index.css" xlink:title="index.css">
<path fill="#ffffcc" stroke="black" d="M203,-34C203,-34 160,-34 160,-34 157,-34 154,-31 154,-28 154,-28 154,-22 154,-22 154,-19 157,-16 160,-16 160,-16 203,-16 203,-16 206,-16 209,-19 209,-22 209,-22 209,-28 209,-28 209,-31 206,-34 203,-34"/>
<text text-anchor="start" x="162" y="-22.8" font-family="Helvetica,sans-Serif" font-size="9.00">index.css</text>
</a>
</g>
</g>
<!-- src/index.tsx -->
<g id="node7" class="node">
<title>src/index.tsx</title>
<g id="a_node7"><a xlink:href="src/index.tsx" xlink:title="index.tsx">
<path fill="#bbfeff" stroke="black" d="M82,-94C82,-94 40,-94 40,-94 37,-94 34,-91 34,-88 34,-88 34,-82 34,-82 34,-79 37,-76 40,-76 40,-76 82,-76 82,-76 85,-76 88,-79 88,-82 88,-82 88,-88 88,-88 88,-91 85,-94 82,-94"/>
<text text-anchor="start" x="42.5" y="-82.8" font-family="Helvetica,sans-Serif" font-size="9.00">index.tsx</text>
</a>
</g>
</g>
<!-- src/index.tsx&#45;&gt;src/App.tsx -->
<g id="edge5" class="edge">
<title>src/index.tsx&#45;&gt;src/App.tsx</title>
<path fill="none" stroke="#000000" stroke-width="2" stroke-opacity="0.200000" d="M70.66,-94.21C80.3,-103.89 96.81,-118.83 114,-127 123.64,-131.58 134.78,-134.67 145.15,-136.76"/>
<polygon fill="#000000" fill-opacity="0.200000" stroke="#000000" stroke-width="2" stroke-opacity="0.200000" points="145.73,-139.35 152,-138.34 146.47,-135.22 145.73,-139.35"/>
</g>
<!-- src/index.tsx&#45;&gt;src/index.css -->
<g id="edge6" class="edge">
<title>src/index.tsx&#45;&gt;src/index.css</title>
<path fill="none" stroke="#000000" stroke-width="2" stroke-opacity="0.200000" d="M88.17,-80.65C94.74,-78.43 101.26,-75.07 106,-70 115.42,-59.92 104.06,-49.57 114,-40 122.28,-32.04 133.84,-27.96 145,-25.96"/>
<polygon fill="#000000" fill-opacity="0.200000" stroke="#000000" stroke-width="2" stroke-opacity="0.200000" points="146.13,-27.65 151.8,-24.77 145.57,-23.49 146.13,-27.65"/>
</g>
<!-- src/reportWebVitals.ts -->
<g id="node8" class="node">
<title>src/reportWebVitals.ts</title>
<g id="a_node8"><a xlink:href="src/reportWebVitals.ts" xlink:title="reportWebVitals.ts">
<path fill="#ddfeff" stroke="black" d="M221,-64C221,-64 142,-64 142,-64 139,-64 136,-61 136,-58 136,-58 136,-52 136,-52 136,-49 139,-46 142,-46 142,-46 221,-46 221,-46 224,-46 227,-49 227,-52 227,-52 227,-58 227,-58 227,-61 224,-64 221,-64"/>
<text text-anchor="start" x="144" y="-52.8" font-family="Helvetica,sans-Serif" font-size="9.00">reportWebVitals.ts</text>
</a>
</g>
</g>
<!-- src/index.tsx&#45;&gt;src/reportWebVitals.ts -->
<g id="edge7" class="edge">
<title>src/index.tsx&#45;&gt;src/reportWebVitals.ts</title>
<path fill="none" stroke="#000000" stroke-width="2" stroke-opacity="0.200000" d="M88.32,-76.39C96.5,-73.85 105.59,-71.18 114,-69 118.25,-67.9 122.66,-66.83 127.11,-65.79"/>
<polygon fill="#000000" fill-opacity="0.200000" stroke="#000000" stroke-width="2" stroke-opacity="0.200000" points="128.27,-67.23 133.66,-63.86 127.34,-63.14 128.27,-67.23"/>
</g>
<!-- src/infrastructure/ApiUserRepository.test.ts -->
<g id="node9" class="node">
<title>src/infrastructure/ApiUserRepository.test.ts</title>
<g id="a_node9"><a xlink:href="src/infrastructure/ApiUserRepository.test.ts" xlink:title="ApiUserRepository.test.ts">
<path fill="#ddfeff" stroke="black" d="M235,-184C235,-184 128,-184 128,-184 125,-184 122,-181 122,-178 122,-178 122,-172 122,-172 122,-169 125,-166 128,-166 128,-166 235,-166 235,-166 238,-166 241,-169 241,-172 241,-172 241,-178 241,-178 241,-181 238,-184 235,-184"/>
<text text-anchor="start" x="130" y="-172.8" font-family="Helvetica,sans-Serif" font-size="9.00">ApiUserRepository.test.ts</text>
</a>
</g>
</g>
<!-- src/infrastructure/ApiUserRepository.test.ts&#45;&gt;src/infrastructure/ApiUserRepository.ts -->
<g id="edge8" class="edge">
<title>src/infrastructure/ApiUserRepository.test.ts&#45;&gt;src/infrastructure/ApiUserRepository.ts</title>
<path fill="none" stroke="#000000" stroke-width="2" stroke-opacity="0.200000" d="M241.36,-175C242.52,-175 243.69,-175 244.85,-175"/>
<polygon fill="#000000" fill-opacity="0.200000" stroke="#000000" stroke-width="2" stroke-opacity="0.200000" points="244.75,-177.1 250.75,-175 244.75,-172.9 244.75,-177.1"/>
</g>
<!-- src/react&#45;app&#45;env.d.ts -->
<g id="node11" class="node">
<title>src/react&#45;app&#45;env.d.ts</title>
<g id="a_node11"><a xlink:href="src/react-app-env.d.ts" xlink:title="react&#45;app&#45;env.d.ts">
<path fill="#ccffcc" stroke="black" d="M100,-64C100,-64 22,-64 22,-64 19,-64 16,-61 16,-58 16,-58 16,-52 16,-52 16,-49 19,-46 22,-46 22,-46 100,-46 100,-46 103,-46 106,-49 106,-52 106,-52 106,-58 106,-58 106,-61 103,-64 100,-64"/>
<text text-anchor="start" x="24" y="-52.8" font-family="Helvetica,sans-Serif" font-size="9.00">react&#45;app&#45;env.d.ts</text>
</a>
</g>
</g>
<!-- src/service/UserService.test.ts -->
<g id="node12" class="node">
<title>src/service/UserService.test.ts</title>
<g id="a_node12"><a xlink:href="src/service/UserService.test.ts" xlink:title="UserService.test.ts">
<path fill="#ddfeff" stroke="black" d="M221.5,-98C221.5,-98 141.5,-98 141.5,-98 138.5,-98 135.5,-95 135.5,-92 135.5,-92 135.5,-86 135.5,-86 135.5,-83 138.5,-80 141.5,-80 141.5,-80 221.5,-80 221.5,-80 224.5,-80 227.5,-83 227.5,-86 227.5,-86 227.5,-92 227.5,-92 227.5,-95 224.5,-98 221.5,-98"/>
<text text-anchor="start" x="143.5" y="-86.8" font-family="Helvetica,sans-Serif" font-size="9.00">UserService.test.ts</text>
</a>
</g>
</g>
<!-- src/service/UserService.test.ts&#45;&gt;src/domain/User.ts -->
<g id="edge10" class="edge">
<title>src/service/UserService.test.ts&#45;&gt;src/domain/User.ts</title>
<path fill="none" stroke="#000000" stroke-width="2" stroke-opacity="0.200000" d="M227.85,-81.66C232.43,-80.12 236.9,-78.25 241,-76 248.16,-72.07 246.45,-66.13 254,-63 299.58,-44.12 315.78,-59.71 365,-63 372.93,-63.53 381.42,-64.46 389.43,-65.49"/>
<polygon fill="#000000" fill-opacity="0.200000" stroke="#000000" stroke-width="2" stroke-opacity="0.200000" points="389.99,-67.96 396.21,-66.7 390.56,-63.8 389.99,-67.96"/>
</g>
<!-- src/service/UserService.test.ts&#45;&gt;src/service/UserService.ts -->
<g id="edge12" class="edge">
<title>src/service/UserService.test.ts&#45;&gt;src/service/UserService.ts</title>
<path fill="none" stroke="#000000" stroke-width="2" stroke-opacity="0.200000" d="M227.93,-89C237.78,-89 248.22,-89 258.11,-89"/>
<polygon fill="#000000" fill-opacity="0.200000" stroke="#000000" stroke-width="2" stroke-opacity="0.200000" points="258.01,-91.1 264.01,-89 258.01,-86.9 258.01,-91.1"/>
</g>
<!-- src/service/UserService.test.ts&#45;&gt;src/repository/UserRepository.ts -->
<g id="edge11" class="edge">
<title>src/service/UserService.test.ts&#45;&gt;src/repository/UserRepository.ts</title>
<path fill="none" stroke="#000000" stroke-width="2" stroke-opacity="0.200000" d="M223.9,-79.56C236.13,-76.94 247.88,-74.63 254,-74 278.53,-71.45 345.71,-58.62 365,-74 377.48,-83.95 362.77,-96.75 373,-109 375.59,-112.11 378.71,-114.78 382.1,-117.09"/>
<polygon fill="#000000" fill-opacity="0.200000" stroke="#000000" stroke-width="2" stroke-opacity="0.200000" points="381.64,-119.4 387.88,-120.57 383.73,-115.76 381.64,-119.4"/>
</g>
<!-- src/setupTests.ts -->
<g id="node13" class="node">
<title>src/setupTests.ts</title>
<g id="a_node13"><a xlink:href="src/setupTests.ts" xlink:title="no&#45;orphans">
<path fill="#ccffcc" stroke="orange" d="M89.5,-34C89.5,-34 32.5,-34 32.5,-34 29.5,-34 26.5,-31 26.5,-28 26.5,-28 26.5,-22 26.5,-22 26.5,-19 29.5,-16 32.5,-16 32.5,-16 89.5,-16 89.5,-16 92.5,-16 95.5,-19 95.5,-22 95.5,-22 95.5,-28 95.5,-28 95.5,-31 92.5,-34 89.5,-34"/>
<text text-anchor="start" x="34.5" y="-22.8" font-family="Helvetica,sans-Serif" font-size="9.00" fill="orange">setupTests.ts</text>
</a>
</g>
</g>
</g>
</svg>
