<?xml version="1.0" encoding="UTF-8" standalone="no"?>
<!DOCTYPE svg PUBLIC "-//W3C//DTD SVG 1.1//EN"
 "http://www.w3.org/Graphics/SVG/1.1/DTD/svg11.dtd">
<!-- Generated by graphviz version 8.0.1 (20230327.1645)
 -->
<!-- Title: dependency&#45;cruiser output Pages: 1 -->
<svg width="630pt" height="491pt"
 viewBox="0.00 0.00 630.00 490.81" xmlns="http://www.w3.org/2000/svg" xmlns:xlink="http://www.w3.org/1999/xlink">
<g id="graph0" class="graph" transform="scale(1 1) rotate(0) translate(4 486.81)">
<title>dependency&#45;cruiser output</title>
<polygon fill="white" stroke="none" points="-4,4 -4,-486.81 626,-486.81 626,4 -4,4"/>
<g id="clust1" class="cluster">
<title>cluster_src</title>
<path fill="#ffffff" stroke="black" stroke-width="2" d="M20,-8C20,-8 602,-8 602,-8 608,-8 614,-14 614,-20 614,-20 614,-458 614,-458 614,-464 608,-470 602,-470 602,-470 20,-470 20,-470 14,-470 8,-464 8,-458 8,-458 8,-20 8,-20 8,-14 14,-8 20,-8"/>
<text text-anchor="middle" x="311" y="-458.8" font-family="Helvetica,sans-Serif" font-weight="bold" font-size="9.00">src</text>
</g>
<g id="clust2" class="cluster">
<title>cluster_src/adapter</title>
<path fill="#ffffff" stroke="black" stroke-width="2" d="M249.5,-382C249.5,-382 457,-382 457,-382 463,-382 469,-388 469,-394 469,-394 469,-422 469,-422 469,-428 463,-434 457,-434 457,-434 249.5,-434 249.5,-434 243.5,-434 237.5,-428 237.5,-422 237.5,-422 237.5,-394 237.5,-394 237.5,-388 243.5,-382 249.5,-382"/>
<text text-anchor="middle" x="353.25" y="-422.8" font-family="Helvetica,sans-Serif" font-weight="bold" font-size="9.00">adapter</text>
</g>
<g id="clust3" class="cluster">
<title>cluster_src/domain</title>
<path fill="#ffffff" stroke="black" stroke-width="2" d="M523.5,-202C523.5,-202 569.5,-202 569.5,-202 575.5,-202 581.5,-208 581.5,-214 581.5,-214 581.5,-242 581.5,-242 581.5,-248 575.5,-254 569.5,-254 569.5,-254 523.5,-254 523.5,-254 517.5,-254 511.5,-248 511.5,-242 511.5,-242 511.5,-214 511.5,-214 511.5,-208 517.5,-202 523.5,-202"/>
<text text-anchor="middle" x="546.5" y="-242.8" font-family="Helvetica,sans-Serif" font-weight="bold" font-size="9.00">domain</text>
</g>
<g id="clust7" class="cluster">
<title>cluster_src/service</title>
<path fill="#ffffff" stroke="black" stroke-width="2" d="M126,-72C126,-72 468.5,-72 468.5,-72 474.5,-72 480.5,-78 480.5,-84 480.5,-84 480.5,-216 480.5,-216 480.5,-222 474.5,-228 468.5,-228 468.5,-228 126,-228 126,-228 120,-228 114,-222 114,-216 114,-216 114,-84 114,-84 114,-78 120,-72 126,-72"/>
<text text-anchor="middle" x="297.25" y="-216.8" font-family="Helvetica,sans-Serif" font-weight="bold" font-size="9.00">service</text>
</g>
<g id="clust8" class="cluster">
<title>cluster_src/service/command</title>
<path fill="#ffffff" stroke="black" stroke-width="2" d="M134,-150C134,-150 214,-150 214,-150 220,-150 226,-156 226,-162 226,-162 226,-190 226,-190 226,-196 220,-202 214,-202 214,-202 134,-202 134,-202 128,-202 122,-196 122,-190 122,-190 122,-162 122,-162 122,-156 128,-150 134,-150"/>
<text text-anchor="middle" x="174" y="-190.8" font-family="Helvetica,sans-Serif" font-weight="bold" font-size="9.00">command</text>
</g>
<g id="clust9" class="cluster">
<title>cluster_src/service/query</title>
<path fill="#ffffff" stroke="black" stroke-width="2" d="M246,-120C246,-120 460.5,-120 460.5,-120 466.5,-120 472.5,-126 472.5,-132 472.5,-132 472.5,-190 472.5,-190 472.5,-196 466.5,-202 460.5,-202 460.5,-202 246,-202 246,-202 240,-202 234,-196 234,-190 234,-190 234,-132 234,-132 234,-126 240,-120 246,-120"/>
<text text-anchor="middle" x="353.25" y="-190.8" font-family="Helvetica,sans-Serif" font-weight="bold" font-size="9.00">query</text>
</g>
<g id="clust6" class="cluster">
<title>cluster_src/repository</title>
<path fill="#ffffff" stroke="black" stroke-width="2" d="M506,-120C506,-120 587,-120 587,-120 593,-120 599,-126 599,-132 599,-132 599,-160 599,-160 599,-166 593,-172 587,-172 587,-172 506,-172 506,-172 500,-172 494,-166 494,-160 494,-160 494,-132 494,-132 494,-126 500,-120 506,-120"/>
<text text-anchor="middle" x="546.5" y="-160.8" font-family="Helvetica,sans-Serif" font-weight="bold" font-size="9.00">repository</text>
</g>
<g id="clust4" class="cluster">
<title>cluster_src/infrastructure</title>
<path fill="#ffffff" stroke="black" stroke-width="2" d="M363,-262C363,-262 594,-262 594,-262 600,-262 606,-268 606,-274 606,-274 606,-362 606,-362 606,-368 600,-374 594,-374 594,-374 363,-374 363,-374 357,-374 351,-368 351,-362 351,-362 351,-274 351,-274 351,-268 357,-262 363,-262"/>
<text text-anchor="middle" x="478.5" y="-362.8" font-family="Helvetica,sans-Serif" font-weight="bold" font-size="9.00">infrastructure</text>
</g>
<g id="clust5" class="cluster">
<title>cluster_src/infrastructure/builder</title>
<path fill="#ffffff" stroke="black" stroke-width="2" d="M371,-270C371,-270 474,-270 474,-270 480,-270 486,-276 486,-282 486,-282 486,-310 486,-310 486,-316 480,-322 474,-322 474,-322 371,-322 371,-322 365,-322 359,-316 359,-310 359,-310 359,-282 359,-282 359,-276 365,-270 371,-270"/>
<text text-anchor="middle" x="422.5" y="-310.8" font-family="Helvetica,sans-Serif" font-weight="bold" font-size="9.00">builder</text>
</g>
<!-- src/App.test.tsx -->
<g id="node1" class="node">
<title>src/App.test.tsx</title>
<g id="a_node1"><a xlink:href="src/App.test.tsx" xlink:title="App.test.tsx">
<path fill="#bbfeff" stroke="black" d="M86.5,-258C86.5,-258 35.5,-258 35.5,-258 32.5,-258 29.5,-255 29.5,-252 29.5,-252 29.5,-246 29.5,-246 29.5,-243 32.5,-240 35.5,-240 35.5,-240 86.5,-240 86.5,-240 89.5,-240 92.5,-243 92.5,-246 92.5,-246 92.5,-252 92.5,-252 92.5,-255 89.5,-258 86.5,-258"/>
<text text-anchor="start" x="37.5" y="-246.8" font-family="Helvetica,sans-Serif" font-size="9.00">App.test.tsx</text>
</a>
</g>
</g>
<!-- src/App.tsx -->
<g id="node2" class="node">
<title>src/App.tsx</title>
<g id="a_node2"><a xlink:href="src/App.tsx" xlink:title="App.tsx">
<path fill="#bbfeff" stroke="black" d="M195,-258C195,-258 153,-258 153,-258 150,-258 147,-255 147,-252 147,-252 147,-246 147,-246 147,-243 150,-240 153,-240 153,-240 195,-240 195,-240 198,-240 201,-243 201,-246 201,-246 201,-252 201,-252 201,-255 198,-258 195,-258"/>
<text text-anchor="start" x="158.5" y="-246.8" font-family="Helvetica,sans-Serif" font-size="9.00">App.tsx</text>
</a>
</g>
</g>
<!-- src/App.test.tsx&#45;&gt;src/App.tsx -->
<g id="edge1" class="edge">
<title>src/App.test.tsx&#45;&gt;src/App.tsx</title>
<path fill="none" stroke="#000000" stroke-width="2" stroke-opacity="0.200000" d="M92.92,-249C106.94,-249 123.59,-249 138.07,-249"/>
<polygon fill="#000000" fill-opacity="0.200000" stroke="#000000" stroke-width="2" stroke-opacity="0.200000" points="137.76,-251.1 143.76,-249 137.76,-246.9 137.76,-251.1"/>
</g>
<!-- src/domain/User.ts -->
<g id="node3" class="node">
<title>src/domain/User.ts</title>
<g id="a_node3"><a xlink:href="src/domain/User.ts" xlink:title="User.ts">
<path fill="#ddfeff" stroke="black" d="M567.5,-228C567.5,-228 525.5,-228 525.5,-228 522.5,-228 519.5,-225 519.5,-222 519.5,-222 519.5,-216 519.5,-216 519.5,-213 522.5,-210 525.5,-210 525.5,-210 567.5,-210 567.5,-210 570.5,-210 573.5,-213 573.5,-216 573.5,-216 573.5,-222 573.5,-222 573.5,-225 570.5,-228 567.5,-228"/>
<text text-anchor="start" x="532" y="-216.8" font-family="Helvetica,sans-Serif" font-size="9.00">User.ts</text>
</a>
</g>
</g>
<!-- src/App.tsx&#45;&gt;src/domain/User.ts -->
<g id="edge2" class="edge">
<title>src/App.tsx&#45;&gt;src/domain/User.ts</title>
<path fill="none" stroke="#000000" stroke-width="2" stroke-opacity="0.200000" d="M201.29,-248.22C254.96,-246.42 380.93,-241.18 486,-229 493.94,-228.08 502.43,-226.82 510.44,-225.51"/>
<polygon fill="#000000" fill-opacity="0.200000" stroke="#000000" stroke-width="2" stroke-opacity="0.200000" points="511.66,-227.09 517.22,-224.01 510.95,-222.95 511.66,-227.09"/>
</g>
<!-- src/infrastructure/ApiUserRepository.ts -->
<g id="node4" class="node">
<title>src/infrastructure/ApiUserRepository.ts</title>
<g id="a_node4"><a xlink:href="src/infrastructure/ApiUserRepository.ts" xlink:title="ApiUserRepository.ts">
<path fill="#ddfeff" stroke="black" d="M592,-348C592,-348 501,-348 501,-348 498,-348 495,-345 495,-342 495,-342 495,-336 495,-336 495,-333 498,-330 501,-330 501,-330 592,-330 592,-330 595,-330 598,-333 598,-336 598,-336 598,-342 598,-342 598,-345 595,-348 592,-348"/>
<text text-anchor="start" x="503" y="-336.8" font-family="Helvetica,sans-Serif" font-size="9.00">ApiUserRepository.ts</text>
</a>
</g>
</g>
<!-- src/App.tsx&#45;&gt;src/infrastructure/ApiUserRepository.ts -->
<g id="edge3" class="edge">
<title>src/App.tsx&#45;&gt;src/infrastructure/ApiUserRepository.ts</title>
<path fill="none" stroke="#000000" stroke-width="2" stroke-opacity="0.200000" d="M174.51,-258.13C173.38,-289.49 174.44,-393.27 234,-437 324.28,-503.29 388.39,-491.93 486,-437 516.49,-419.84 533.16,-380.04 540.62,-356.78"/>
<polygon fill="#000000" fill-opacity="0.200000" stroke="#000000" stroke-width="2" stroke-opacity="0.200000" points="543.47,-356.56 543.18,-350.21 539.45,-355.36 543.47,-356.56"/>
</g>
<!-- src/service/UserService.ts -->
<g id="node5" class="node">
<title>src/service/UserService.ts</title>
<g id="a_node5"><a xlink:href="src/service/UserService.ts" xlink:title="UserService.ts">
<path fill="#ddfeff" stroke="black" d="M324.5,-112C324.5,-112 260.5,-112 260.5,-112 257.5,-112 254.5,-109 254.5,-106 254.5,-106 254.5,-100 254.5,-100 254.5,-97 257.5,-94 260.5,-94 260.5,-94 324.5,-94 324.5,-94 327.5,-94 330.5,-97 330.5,-100 330.5,-100 330.5,-106 330.5,-106 330.5,-109 327.5,-112 324.5,-112"/>
<text text-anchor="start" x="262.5" y="-100.8" font-family="Helvetica,sans-Serif" font-size="9.00">UserService.ts</text>
</a>
</g>
</g>
<!-- src/App.tsx&#45;&gt;src/service/UserService.ts -->
<g id="edge4" class="edge">
<title>src/App.tsx&#45;&gt;src/service/UserService.ts</title>
<path fill="none" stroke="#000000" stroke-width="2" stroke-opacity="0.200000" d="M191.32,-239.7C203.13,-232.03 218.3,-219.98 226,-205 234.98,-187.54 221.18,-131.87 234,-117 237.23,-113.25 241.27,-110.42 245.72,-108.29"/>
<polygon fill="#000000" fill-opacity="0.200000" stroke="#000000" stroke-width="2" stroke-opacity="0.200000" points="247.17,-110.24 252.05,-106.17 245.7,-106.31 247.17,-110.24"/>
</g>
<!-- src/repository/UserRepository.ts -->
<g id="node12" class="node">
<title>src/repository/UserRepository.ts</title>
<g id="a_node12"><a xlink:href="src/repository/UserRepository.ts" xlink:title="UserRepository.ts">
<path fill="#ddfeff" stroke="black" d="M585,-146C585,-146 508,-146 508,-146 505,-146 502,-143 502,-140 502,-140 502,-134 502,-134 502,-131 505,-128 508,-128 508,-128 585,-128 585,-128 588,-128 591,-131 591,-134 591,-134 591,-140 591,-140 591,-143 588,-146 585,-146"/>
<text text-anchor="start" x="510" y="-134.8" font-family="Helvetica,sans-Serif" font-size="9.00">UserRepository.ts</text>
</a>
</g>
</g>
<!-- src/infrastructure/ApiUserRepository.ts&#45;&gt;src/repository/UserRepository.ts -->
<g id="edge14" class="edge">
<title>src/infrastructure/ApiUserRepository.ts&#45;&gt;src/repository/UserRepository.ts</title>
<g id="a_edge14"><a xlink:title="no&#45;circular">
<path fill="none" stroke="orange" stroke-width="2" d="M537.84,-329.64C524.48,-314.49 499.4,-283.06 490,-251 487.12,-241.19 487.04,-214.78 490,-205 496.5,-183.54 513.98,-164.43 527.79,-151.97"/>
<polygon fill="none" stroke="orange" stroke-width="2" points="529.05,-152.93 532.22,-147.41 526.3,-149.75 529.05,-152.93"/>
</a>
</g>
<text text-anchor="middle" x="466.68" y="-236.75" font-family="Helvetica,sans-Serif" font-size="9.00" fill="orange">no&#45;circular</text>
</g>
<!-- src/service/UserService.ts&#45;&gt;src/repository/UserRepository.ts -->
<g id="edge23" class="edge">
<title>src/service/UserService.ts&#45;&gt;src/repository/UserRepository.ts</title>
<path fill="none" stroke="#000000" stroke-width="2" stroke-opacity="0.200000" d="M330.78,-102.95C369.83,-103.53 432.78,-106.3 486,-117 495.05,-118.82 504.64,-121.63 513.4,-124.57"/>
<polygon fill="#000000" fill-opacity="0.200000" stroke="#000000" stroke-width="2" stroke-opacity="0.200000" points="513.49,-127.52 519.85,-127.52 514.88,-123.56 513.49,-127.52"/>
</g>
<!-- src/service/query/GetUserQuery.ts -->
<g id="node16" class="node">
<title>src/service/query/GetUserQuery.ts</title>
<g id="a_node16"><a xlink:href="src/service/query/GetUserQuery.ts" xlink:title="GetUserQuery.ts">
<path fill="#ddfeff" stroke="black" d="M458.5,-146C458.5,-146 386.5,-146 386.5,-146 383.5,-146 380.5,-143 380.5,-140 380.5,-140 380.5,-134 380.5,-134 380.5,-131 383.5,-128 386.5,-128 386.5,-128 458.5,-128 458.5,-128 461.5,-128 464.5,-131 464.5,-134 464.5,-134 464.5,-140 464.5,-140 464.5,-143 461.5,-146 458.5,-146"/>
<text text-anchor="start" x="388.5" y="-134.8" font-family="Helvetica,sans-Serif" font-size="9.00">GetUserQuery.ts</text>
</a>
</g>
</g>
<!-- src/service/UserService.ts&#45;&gt;src/service/query/GetUserQuery.ts -->
<g id="edge24" class="edge">
<title>src/service/UserService.ts&#45;&gt;src/service/query/GetUserQuery.ts</title>
<path fill="none" stroke="#000000" stroke-width="2" stroke-opacity="0.200000" d="M330.97,-111.66C335.14,-113.19 339.23,-114.96 343,-117 347.15,-119.25 346.75,-121.94 351,-124 357.44,-127.12 364.55,-129.49 371.69,-131.29"/>
<polygon fill="#000000" fill-opacity="0.200000" stroke="#000000" stroke-width="2" stroke-opacity="0.200000" points="371.75,-133.91 378.06,-133.16 372.66,-129.81 371.75,-133.91"/>
</g>
<!-- src/adapter/UserAdapter.test.ts -->
<g id="node6" class="node">
<title>src/adapter/UserAdapter.test.ts</title>
<g id="a_node6"><a xlink:href="src/adapter/UserAdapter.test.ts" xlink:title="UserAdapter.test.ts">
<path fill="#ddfeff" stroke="black" d="M333.5,-408C333.5,-408 251.5,-408 251.5,-408 248.5,-408 245.5,-405 245.5,-402 245.5,-402 245.5,-396 245.5,-396 245.5,-393 248.5,-390 251.5,-390 251.5,-390 333.5,-390 333.5,-390 336.5,-390 339.5,-393 339.5,-396 339.5,-396 339.5,-402 339.5,-402 339.5,-405 336.5,-408 333.5,-408"/>
<text text-anchor="start" x="253.5" y="-396.8" font-family="Helvetica,sans-Serif" font-size="9.00">UserAdapter.test.ts</text>
</a>
</g>
</g>
<!-- src/adapter/UserAdapter.test.ts&#45;&gt;src/domain/User.ts -->
<g id="edge5" class="edge">
<title>src/adapter/UserAdapter.test.ts&#45;&gt;src/domain/User.ts</title>
<path fill="none" stroke="#000000" stroke-width="2" stroke-opacity="0.200000" d="M339.25,-389.72C340.61,-388.61 341.87,-387.37 343,-386 359.88,-365.57 332.95,-286.41 351,-267 371.63,-244.81 457.03,-256.86 486,-248 498.44,-244.2 511.5,-238.09 522.21,-232.46"/>
<polygon fill="#000000" fill-opacity="0.200000" stroke="#000000" stroke-width="2" stroke-opacity="0.200000" points="523.62,-234 527.9,-229.29 521.62,-230.31 523.62,-234"/>
</g>
<!-- src/adapter/UserAdapter.test.ts&#45;&gt;src/infrastructure/ApiUserRepository.ts -->
<g id="edge6" class="edge">
<title>src/adapter/UserAdapter.test.ts&#45;&gt;src/infrastructure/ApiUserRepository.ts</title>
<path fill="none" stroke="#000000" stroke-width="2" stroke-opacity="0.200000" d="M329.54,-408.49C340.72,-411.42 350.33,-413.91 351,-414 380.76,-417.82 458.99,-427.05 486,-414 510.56,-402.13 528.09,-374.65 537.5,-356.46"/>
<polygon fill="#000000" fill-opacity="0.200000" stroke="#000000" stroke-width="2" stroke-opacity="0.200000" points="539.71,-356.69 540.47,-350.38 535.94,-354.84 539.71,-356.69"/>
</g>
<!-- src/adapter/UserAdapter.ts -->
<g id="node7" class="node">
<title>src/adapter/UserAdapter.ts</title>
<g id="a_node7"><a xlink:href="src/adapter/UserAdapter.ts" xlink:title="UserAdapter.ts">
<path fill="#ddfeff" stroke="black" d="M455,-408C455,-408 390,-408 390,-408 387,-408 384,-405 384,-402 384,-402 384,-396 384,-396 384,-393 387,-390 390,-390 390,-390 455,-390 455,-390 458,-390 461,-393 461,-396 461,-396 461,-402 461,-402 461,-405 458,-408 455,-408"/>
<text text-anchor="start" x="392" y="-396.8" font-family="Helvetica,sans-Serif" font-size="9.00">UserAdapter.ts</text>
</a>
</g>
</g>
<!-- src/adapter/UserAdapter.test.ts&#45;&gt;src/adapter/UserAdapter.ts -->
<g id="edge7" class="edge">
<title>src/adapter/UserAdapter.test.ts&#45;&gt;src/adapter/UserAdapter.ts</title>
<path fill="none" stroke="#000000" stroke-width="2" stroke-opacity="0.200000" d="M339.71,-399C351.12,-399 363.36,-399 374.8,-399"/>
<polygon fill="#000000" fill-opacity="0.200000" stroke="#000000" stroke-width="2" stroke-opacity="0.200000" points="374.77,-401.1 380.77,-399 374.77,-396.9 374.77,-401.1"/>
</g>
<!-- src/adapter/UserAdapter.ts&#45;&gt;src/domain/User.ts -->
<g id="edge8" class="edge">
<title>src/adapter/UserAdapter.ts&#45;&gt;src/domain/User.ts</title>
<path fill="none" stroke="#000000" stroke-width="2" stroke-opacity="0.200000" d="M461.33,-393.31C470.78,-390.06 479.94,-384.97 486,-377 501.91,-356.08 481.65,-282.2 494,-259 499.62,-248.43 509.39,-239.77 518.91,-233.24"/>
<polygon fill="#000000" fill-opacity="0.200000" stroke="#000000" stroke-width="2" stroke-opacity="0.200000" points="520.48,-234.46 524.42,-229.47 518.23,-230.92 520.48,-234.46"/>
</g>
<!-- src/adapter/UserAdapter.ts&#45;&gt;src/infrastructure/ApiUserRepository.ts -->
<g id="edge9" class="edge">
<title>src/adapter/UserAdapter.ts&#45;&gt;src/infrastructure/ApiUserRepository.ts</title>
<path fill="none" stroke="#000000" stroke-width="2" stroke-opacity="0.200000" d="M454.91,-389.52C465.04,-386.05 476.18,-381.79 486,-377 499.79,-370.28 514.31,-361.05 525.56,-353.37"/>
<polygon fill="#000000" fill-opacity="0.200000" stroke="#000000" stroke-width="2" stroke-opacity="0.200000" points="527.05,-354.5 530.77,-349.35 524.65,-351.06 527.05,-354.5"/>
</g>
<!-- src/index.css -->
<g id="node8" class="node">
<title>src/index.css</title>
<g id="a_node8"><a xlink:href="src/index.css" xlink:title="index.css">
<path fill="#ffffcc" stroke="black" d="M195.5,-64C195.5,-64 152.5,-64 152.5,-64 149.5,-64 146.5,-61 146.5,-58 146.5,-58 146.5,-52 146.5,-52 146.5,-49 149.5,-46 152.5,-46 152.5,-46 195.5,-46 195.5,-46 198.5,-46 201.5,-49 201.5,-52 201.5,-52 201.5,-58 201.5,-58 201.5,-61 198.5,-64 195.5,-64"/>
<text text-anchor="start" x="154.5" y="-52.8" font-family="Helvetica,sans-Serif" font-size="9.00">index.css</text>
</a>
</g>
</g>
<!-- src/index.tsx -->
<g id="node9" class="node">
<title>src/index.tsx</title>
<g id="a_node9"><a xlink:href="src/index.tsx" xlink:title="index.tsx">
<path fill="#bbfeff" stroke="black" d="M82,-94C82,-94 40,-94 40,-94 37,-94 34,-91 34,-88 34,-88 34,-82 34,-82 34,-79 37,-76 40,-76 40,-76 82,-76 82,-76 85,-76 88,-79 88,-82 88,-82 88,-88 88,-88 88,-91 85,-94 82,-94"/>
<text text-anchor="start" x="42.5" y="-82.8" font-family="Helvetica,sans-Serif" font-size="9.00">index.tsx</text>
</a>
</g>
</g>
<!-- src/index.tsx&#45;&gt;src/App.tsx -->
<g id="edge10" class="edge">
<title>src/index.tsx&#45;&gt;src/App.tsx</title>
<path fill="none" stroke="#000000" stroke-width="2" stroke-opacity="0.200000" d="M64.25,-94.28C69.77,-115.65 85.68,-169.21 114,-205 123.43,-216.92 136.84,-227.26 148.48,-234.92"/>
<polygon fill="#000000" fill-opacity="0.200000" stroke="#000000" stroke-width="2" stroke-opacity="0.200000" points="147.63,-237.12 153.83,-238.55 149.87,-233.57 147.63,-237.12"/>
</g>
<!-- src/index.tsx&#45;&gt;src/index.css -->
<g id="edge11" class="edge">
<title>src/index.tsx&#45;&gt;src/index.css</title>
<path fill="none" stroke="#000000" stroke-width="2" stroke-opacity="0.200000" d="M88.36,-76.52C96.54,-73.99 105.62,-71.28 114,-69 121.6,-66.93 129.8,-64.88 137.6,-63"/>
<polygon fill="#000000" fill-opacity="0.200000" stroke="#000000" stroke-width="2" stroke-opacity="0.200000" points="138.82,-64.4 144.18,-60.97 137.86,-60.31 138.82,-64.4"/>
</g>
<!-- src/reportWebVitals.ts -->
<g id="node10" class="node">
<title>src/reportWebVitals.ts</title>
<g id="a_node10"><a xlink:href="src/reportWebVitals.ts" xlink:title="reportWebVitals.ts">
<path fill="#ddfeff" stroke="black" d="M213.5,-34C213.5,-34 134.5,-34 134.5,-34 131.5,-34 128.5,-31 128.5,-28 128.5,-28 128.5,-22 128.5,-22 128.5,-19 131.5,-16 134.5,-16 134.5,-16 213.5,-16 213.5,-16 216.5,-16 219.5,-19 219.5,-22 219.5,-22 219.5,-28 219.5,-28 219.5,-31 216.5,-34 213.5,-34"/>
<text text-anchor="start" x="136.5" y="-22.8" font-family="Helvetica,sans-Serif" font-size="9.00">reportWebVitals.ts</text>
</a>
</g>
</g>
<!-- src/index.tsx&#45;&gt;src/reportWebVitals.ts -->
<g id="edge12" class="edge">
<title>src/index.tsx&#45;&gt;src/reportWebVitals.ts</title>
<path fill="none" stroke="#000000" stroke-width="2" stroke-opacity="0.200000" d="M88.17,-80.65C94.74,-78.43 101.26,-75.07 106,-70 115.42,-59.92 104.19,-49.7 114,-40 115.87,-38.15 117.93,-36.53 120.13,-35.09"/>
<polygon fill="#000000" fill-opacity="0.200000" stroke="#000000" stroke-width="2" stroke-opacity="0.200000" points="121.73,-36.57 126.05,-31.91 119.77,-32.85 121.73,-36.57"/>
</g>
<!-- src/infrastructure/ApiUserRepository.test.ts -->
<g id="node11" class="node">
<title>src/infrastructure/ApiUserRepository.test.ts</title>
<g id="a_node11"><a xlink:href="src/infrastructure/ApiUserRepository.test.ts" xlink:title="ApiUserRepository.test.ts">
<path fill="#ddfeff" stroke="black" d="M476,-348C476,-348 369,-348 369,-348 366,-348 363,-345 363,-342 363,-342 363,-336 363,-336 363,-333 366,-330 369,-330 369,-330 476,-330 476,-330 479,-330 482,-333 482,-336 482,-336 482,-342 482,-342 482,-345 479,-348 476,-348"/>
<text text-anchor="start" x="371" y="-336.8" font-family="Helvetica,sans-Serif" font-size="9.00">ApiUserRepository.test.ts</text>
</a>
</g>
</g>
<!-- src/infrastructure/ApiUserRepository.test.ts&#45;&gt;src/infrastructure/ApiUserRepository.ts -->
<g id="edge13" class="edge">
<title>src/infrastructure/ApiUserRepository.test.ts&#45;&gt;src/infrastructure/ApiUserRepository.ts</title>
<path fill="none" stroke="#000000" stroke-width="2" stroke-opacity="0.200000" d="M482.36,-339C483.52,-339 484.69,-339 485.85,-339"/>
<polygon fill="#000000" fill-opacity="0.200000" stroke="#000000" stroke-width="2" stroke-opacity="0.200000" points="485.75,-341.1 491.75,-339 485.75,-336.9 485.75,-341.1"/>
</g>
<!-- src/repository/UserRepository.ts&#45;&gt;src/infrastructure/ApiUserRepository.ts -->
<g id="edge17" class="edge">
<title>src/repository/UserRepository.ts&#45;&gt;src/infrastructure/ApiUserRepository.ts</title>
<g id="a_edge17"><a xlink:title="no&#45;circular">
<path fill="none" stroke="orange" stroke-width="2" d="M534.22,-146.41C520,-158.23 497.56,-180.03 490,-205 487.04,-214.78 487.12,-241.19 490,-251 498.23,-279.05 518.45,-306.62 532.33,-323.23"/>
<polygon fill="none" stroke="orange" stroke-width="2" points="531.34,-324.45 536.84,-327.64 534.52,-321.72 531.34,-324.45"/>
</a>
</g>
<text text-anchor="middle" x="468.2" y="-254.46" font-family="Helvetica,sans-Serif" font-size="9.00" fill="orange">no&#45;circular</text>
</g>
<!-- src/infrastructure/builder/MockUserRepository.ts -->
<g id="node13" class="node">
<title>src/infrastructure/builder/MockUserRepository.ts</title>
<g id="a_node13"><a xlink:href="src/infrastructure/builder/MockUserRepository.ts" xlink:title="MockUserRepository.ts">
<path fill="#ddfeff" stroke="black" d="M472,-296C472,-296 373,-296 373,-296 370,-296 367,-293 367,-290 367,-290 367,-284 367,-284 367,-281 370,-278 373,-278 373,-278 472,-278 472,-278 475,-278 478,-281 478,-284 478,-284 478,-290 478,-290 478,-293 475,-296 472,-296"/>
<text text-anchor="start" x="375" y="-284.8" font-family="Helvetica,sans-Serif" font-size="9.00">MockUserRepository.ts</text>
</a>
</g>
</g>
<!-- src/infrastructure/builder/MockUserRepository.ts&#45;&gt;src/infrastructure/ApiUserRepository.ts -->
<g id="edge16" class="edge">
<title>src/infrastructure/builder/MockUserRepository.ts&#45;&gt;src/infrastructure/ApiUserRepository.ts</title>
<path fill="none" stroke="#000000" stroke-width="2" stroke-opacity="0.200000" d="M476.12,-296.43C479.5,-297.5 482.83,-298.69 486,-300 500.65,-306.07 515.57,-315.86 526.8,-324.11"/>
<polygon fill="#000000" fill-opacity="0.200000" stroke="#000000" stroke-width="2" stroke-opacity="0.200000" points="525.89,-326.57 531.94,-328.51 528.43,-323.22 525.89,-326.57"/>
</g>
<!-- src/infrastructure/builder/MockUserRepository.ts&#45;&gt;src/repository/UserRepository.ts -->
<g id="edge15" class="edge">
<title>src/infrastructure/builder/MockUserRepository.ts&#45;&gt;src/repository/UserRepository.ts</title>
<path fill="none" stroke="#000000" stroke-width="2" stroke-opacity="0.200000" d="M430.86,-277.71C443.62,-261.61 470.74,-227.52 494,-199 506.87,-183.23 521.74,-165.36 532.18,-152.88"/>
<polygon fill="#000000" fill-opacity="0.200000" stroke="#000000" stroke-width="2" stroke-opacity="0.200000" points="534.53,-154.15 536.77,-148.2 531.31,-151.45 534.53,-154.15"/>
</g>
<!-- src/react&#45;app&#45;env.d.ts -->
<g id="node14" class="node">
<title>src/react&#45;app&#45;env.d.ts</title>
<g id="a_node14"><a xlink:href="src/react-app-env.d.ts" xlink:title="react&#45;app&#45;env.d.ts">
<path fill="#ccffcc" stroke="black" d="M100,-64C100,-64 22,-64 22,-64 19,-64 16,-61 16,-58 16,-58 16,-52 16,-52 16,-49 19,-46 22,-46 22,-46 100,-46 100,-46 103,-46 106,-49 106,-52 106,-52 106,-58 106,-58 106,-61 103,-64 100,-64"/>
<text text-anchor="start" x="24" y="-52.8" font-family="Helvetica,sans-Serif" font-size="9.00">react&#45;app&#45;env.d.ts</text>
</a>
</g>
</g>
<!-- src/service/UserService.test.ts -->
<g id="node15" class="node">
<title>src/service/UserService.test.ts</title>
<g id="a_node15"><a xlink:href="src/service/UserService.test.ts" xlink:title="UserService.test.ts">
<path fill="#ddfeff" stroke="black" d="M214,-142C214,-142 134,-142 134,-142 131,-142 128,-139 128,-136 128,-136 128,-130 128,-130 128,-127 131,-124 134,-124 134,-124 214,-124 214,-124 217,-124 220,-127 220,-130 220,-130 220,-136 220,-136 220,-139 217,-142 214,-142"/>
<text text-anchor="start" x="136" y="-130.8" font-family="Helvetica,sans-Serif" font-size="9.00">UserService.test.ts</text>
</a>
</g>
</g>
<!-- src/service/UserService.test.ts&#45;&gt;src/domain/User.ts -->
<g id="edge18" class="edge">
<title>src/service/UserService.test.ts&#45;&gt;src/domain/User.ts</title>
<path fill="none" stroke="#000000" stroke-width="2" stroke-opacity="0.200000" d="M220.27,-141.93C222.37,-143.39 224.3,-145.07 226,-147 243.16,-166.56 214.77,-187.47 234,-205 244.07,-214.19 431.25,-217.58 510.51,-218.62"/>
<polygon fill="#000000" fill-opacity="0.200000" stroke="#000000" stroke-width="2" stroke-opacity="0.200000" points="510.15,-220.75 516.18,-218.72 510.2,-216.55 510.15,-220.75"/>
</g>
<!-- src/service/UserService.test.ts&#45;&gt;src/repository/UserRepository.ts -->
<g id="edge20" class="edge">
<title>src/service/UserService.test.ts&#45;&gt;src/repository/UserRepository.ts</title>
<path fill="none" stroke="#000000" stroke-width="2" stroke-opacity="0.200000" d="M220.18,-124.92C222.31,-123.51 224.27,-121.88 226,-120 240.63,-104.08 217.5,-85.98 234,-72 270.96,-40.69 294.78,-67.32 343,-72 407.46,-78.25 425.73,-76.29 486,-100 500.35,-105.65 515.07,-114.77 526.29,-122.55"/>
<polygon fill="#000000" fill-opacity="0.200000" stroke="#000000" stroke-width="2" stroke-opacity="0.200000" points="525.34,-124.88 531.44,-126.65 527.78,-121.46 525.34,-124.88"/>
</g>
<!-- src/service/UserService.test.ts&#45;&gt;src/infrastructure/builder/MockUserRepository.ts -->
<g id="edge19" class="edge">
<title>src/service/UserService.test.ts&#45;&gt;src/infrastructure/builder/MockUserRepository.ts</title>
<path fill="none" stroke="#000000" stroke-width="2" stroke-opacity="0.200000" d="M220.32,-141.89C222.4,-143.36 224.32,-145.05 226,-147 245.84,-170.08 215.33,-190.97 234,-215 263.66,-253.17 316.19,-271.12 358.11,-279.55"/>
<polygon fill="#000000" fill-opacity="0.200000" stroke="#000000" stroke-width="2" stroke-opacity="0.200000" points="358.6,-282.15 364.89,-281.2 359.38,-278.03 358.6,-282.15"/>
</g>
<!-- src/service/UserService.test.ts&#45;&gt;src/service/query/GetUserQuery.ts -->
<g id="edge21" class="edge">
<title>src/service/UserService.test.ts&#45;&gt;src/service/query/GetUserQuery.ts</title>
<path fill="none" stroke="#000000" stroke-width="2" stroke-opacity="0.200000" d="M220.47,-124.45C222.46,-123.16 224.32,-121.68 226,-120 236.34,-109.61 222.44,-97.02 234,-88 272.18,-58.19 296.43,-74.66 343,-88 366.09,-94.62 388.99,-110.22 404.04,-122.06"/>
<polygon fill="#000000" fill-opacity="0.200000" stroke="#000000" stroke-width="2" stroke-opacity="0.200000" points="402.79,-124.36 408.77,-126.51 405.43,-121.1 402.79,-124.36"/>
</g>
<!-- src/service/query/UserQuery.ts -->
<g id="node17" class="node">
<title>src/service/query/UserQuery.ts</title>
<g id="a_node17"><a xlink:href="src/service/query/UserQuery.ts" xlink:title="UserQuery.ts">
<path fill="#ddfeff" stroke="black" d="M321.5,-176C321.5,-176 263.5,-176 263.5,-176 260.5,-176 257.5,-173 257.5,-170 257.5,-170 257.5,-164 257.5,-164 257.5,-161 260.5,-158 263.5,-158 263.5,-158 321.5,-158 321.5,-158 324.5,-158 327.5,-161 327.5,-164 327.5,-164 327.5,-170 327.5,-170 327.5,-173 324.5,-176 321.5,-176"/>
<text text-anchor="start" x="265.5" y="-164.8" font-family="Helvetica,sans-Serif" font-size="9.00">UserQuery.ts</text>
</a>
</g>
</g>
<!-- src/service/UserService.test.ts&#45;&gt;src/service/query/UserQuery.ts -->
<g id="edge22" class="edge">
<title>src/service/UserService.test.ts&#45;&gt;src/service/query/UserQuery.ts</title>
<path fill="none" stroke="#000000" stroke-width="2" stroke-opacity="0.200000" d="M214.11,-142.47C218.19,-143.83 222.22,-145.34 226,-147 229.84,-148.68 230.15,-150.34 234,-152 238.67,-154.01 243.68,-155.81 248.72,-157.39"/>
<polygon fill="#000000" fill-opacity="0.200000" stroke="#000000" stroke-width="2" stroke-opacity="0.200000" points="248.83,-160.2 255.18,-159.87 250.01,-156.17 248.83,-160.2"/>
</g>
<!-- src/service/query/GetUserQuery.ts&#45;&gt;src/domain/User.ts -->
<g id="edge29" class="edge">
<title>src/service/query/GetUserQuery.ts&#45;&gt;src/domain/User.ts</title>
<path fill="none" stroke="#000000" stroke-width="2" stroke-opacity="0.200000" d="M437.96,-146.35C450.67,-154.6 469.63,-166.99 486,-178 499.03,-186.76 513.53,-196.75 524.96,-204.68"/>
<polygon fill="#000000" fill-opacity="0.200000" stroke="#000000" stroke-width="2" stroke-opacity="0.200000" points="524.2,-207.09 530.33,-208.79 526.6,-203.65 524.2,-207.09"/>
</g>
<!-- src/service/query/GetUserQuery.ts&#45;&gt;src/adapter/UserAdapter.ts -->
<g id="edge28" class="edge">
<title>src/service/query/GetUserQuery.ts&#45;&gt;src/adapter/UserAdapter.ts</title>
<path fill="none" stroke="#000000" stroke-width="2" stroke-opacity="0.200000" d="M414.94,-146.49C398.62,-167.65 360.47,-220.98 347,-273 344.27,-283.54 343.84,-360.58 347,-371 347.93,-374.07 348.43,-375.08 351,-377 358.26,-382.41 366.87,-386.51 375.55,-389.6"/>
<polygon fill="#000000" fill-opacity="0.200000" stroke="#000000" stroke-width="2" stroke-opacity="0.200000" points="375.5,-392.44 381.86,-392.27 376.79,-388.44 375.5,-392.44"/>
</g>
<!-- src/service/query/GetUserQuery.ts&#45;&gt;src/repository/UserRepository.ts -->
<g id="edge30" class="edge">
<title>src/service/query/GetUserQuery.ts&#45;&gt;src/repository/UserRepository.ts</title>
<path fill="none" stroke="#000000" stroke-width="2" stroke-opacity="0.200000" d="M464.8,-137C473.81,-137 483.47,-137 492.85,-137"/>
<polygon fill="#000000" fill-opacity="0.200000" stroke="#000000" stroke-width="2" stroke-opacity="0.200000" points="492.74,-139.1 498.74,-137 492.74,-134.9 492.74,-139.1"/>
</g>
<!-- src/service/query/UserQuery.ts&#45;&gt;src/domain/User.ts -->
<g id="edge31" class="edge">
<title>src/service/query/UserQuery.ts&#45;&gt;src/domain/User.ts</title>
<path fill="none" stroke="#000000" stroke-width="2" stroke-opacity="0.200000" d="M327.68,-166.59C366.79,-167.02 432.37,-170.5 486,-187 499.53,-191.16 513.53,-198.51 524.55,-205.12"/>
<polygon fill="#000000" fill-opacity="0.200000" stroke="#000000" stroke-width="2" stroke-opacity="0.200000" points="523.79,-207.36 529.99,-208.75 526,-203.8 523.79,-207.36"/>
</g>
<!-- src/service/command/UserCommand.ts -->
<g id="node18" class="node">
<title>src/service/command/UserCommand.ts</title>
<g id="a_node18"><a xlink:href="src/service/command/UserCommand.ts" xlink:title="UserCommand.ts">
<path fill="#ddfeff" stroke="black" d="M212,-176C212,-176 136,-176 136,-176 133,-176 130,-173 130,-170 130,-170 130,-164 130,-164 130,-161 133,-158 136,-158 136,-158 212,-158 212,-158 215,-158 218,-161 218,-164 218,-164 218,-170 218,-170 218,-173 215,-176 212,-176"/>
<text text-anchor="start" x="138" y="-164.8" font-family="Helvetica,sans-Serif" font-size="9.00">UserCommand.ts</text>
</a>
</g>
</g>
<!-- src/service/command/UserCommand.ts&#45;&gt;src/domain/User.ts -->
<g id="edge25" class="edge">
<title>src/service/command/UserCommand.ts&#45;&gt;src/domain/User.ts</title>
<path fill="none" stroke="#000000" stroke-width="2" stroke-opacity="0.200000" d="M218.24,-174.01C221.1,-175.64 223.74,-177.61 226,-180 238.48,-193.15 219.98,-208.51 234,-220 254.9,-237.13 433.05,-226.9 510.16,-221.59"/>
<polygon fill="#000000" fill-opacity="0.200000" stroke="#000000" stroke-width="2" stroke-opacity="0.200000" points="510.21,-223.49 516.05,-220.97 509.92,-219.3 510.21,-223.49"/>
</g>
<!-- src/service/query/GetUserQuery.test.ts -->
<g id="node19" class="node">
<title>src/service/query/GetUserQuery.test.ts</title>
<g id="a_node19"><a xlink:href="src/service/query/GetUserQuery.test.ts" xlink:title="GetUserQuery.test.ts">
<path fill="#ddfeff" stroke="black" d="M337,-146C337,-146 248,-146 248,-146 245,-146 242,-143 242,-140 242,-140 242,-134 242,-134 242,-131 245,-128 248,-128 248,-128 337,-128 337,-128 340,-128 343,-131 343,-134 343,-134 343,-140 343,-140 343,-143 340,-146 337,-146"/>
<text text-anchor="start" x="250" y="-134.8" font-family="Helvetica,sans-Serif" font-size="9.00">GetUserQuery.test.ts</text>
</a>
</g>
</g>
<!-- src/service/query/GetUserQuery.test.ts&#45;&gt;src/infrastructure/builder/MockUserRepository.ts -->
<g id="edge26" class="edge">
<title>src/service/query/GetUserQuery.test.ts&#45;&gt;src/infrastructure/builder/MockUserRepository.ts</title>
<path fill="none" stroke="#000000" stroke-width="2" stroke-opacity="0.200000" d="M336.55,-146.36C338.94,-147.96 341.12,-149.83 343,-152 358.59,-170.02 341.07,-183.35 351,-205 363.33,-231.88 387.17,-256.72 403.69,-271.86"/>
<polygon fill="#000000" fill-opacity="0.200000" stroke="#000000" stroke-width="2" stroke-opacity="0.200000" points="402.4,-273.3 408.27,-275.73 405.2,-270.17 402.4,-273.3"/>
</g>
<!-- src/service/query/GetUserQuery.test.ts&#45;&gt;src/service/query/GetUserQuery.ts -->
<g id="edge27" class="edge">
<title>src/service/query/GetUserQuery.test.ts&#45;&gt;src/service/query/GetUserQuery.ts</title>
<path fill="none" stroke="#000000" stroke-width="2" stroke-opacity="0.200000" d="M343.35,-137C352.61,-137 362.28,-137 371.54,-137"/>
<polygon fill="#000000" fill-opacity="0.200000" stroke="#000000" stroke-width="2" stroke-opacity="0.200000" points="371.27,-139.1 377.27,-137 371.27,-134.9 371.27,-139.1"/>
</g>
<!-- src/setupTests.ts -->
<g id="node20" class="node">
<title>src/setupTests.ts</title>
<g id="a_node20"><a xlink:href="src/setupTests.ts" xlink:title="no&#45;orphans">
<path fill="#ccffcc" stroke="orange" d="M89.5,-34C89.5,-34 32.5,-34 32.5,-34 29.5,-34 26.5,-31 26.5,-28 26.5,-28 26.5,-22 26.5,-22 26.5,-19 29.5,-16 32.5,-16 32.5,-16 89.5,-16 89.5,-16 92.5,-16 95.5,-19 95.5,-22 95.5,-22 95.5,-28 95.5,-28 95.5,-31 92.5,-34 89.5,-34"/>
<text text-anchor="start" x="34.5" y="-22.8" font-family="Helvetica,sans-Serif" font-size="9.00" fill="orange">setupTests.ts</text>
</a>
</g>
</g>
</g>
</svg>
